<svg xmlns="http://www.w3.org/2000/svg" height="24px" viewBox="0 -960 960 960" width="24px" fill="currentColor"><path d="M480.07-100q-78.43 0-147.67-29.93-69.24-29.92-120.89-81.55-51.64-51.64-81.58-120.86Q100-401.56 100-480q0-79.38 30.1-148.23 30.11-68.85 81.54-120.54l35.39 35.39q-45.49 44.82-71.13 104.72-25.64 59.9-25.64 128.66 0 137.38 96.18 233.56T480-150.26q137.79 0 233.77-96.18 95.97-96.18 95.97-233.56 0-68.9-25.43-128.73-25.44-59.83-70.93-104.65l35.39-35.39q51.69 51.69 81.46 120.54Q860-559.38 860-479.83q0 78.19-29.92 147.43-29.92 69.24-81.21 120.89-51.29 51.64-120.63 81.58Q558.9-100 480.07-100Zm-25.2-340v-420h50.26v420h-50.26Z"/></svg>