<svg xmlns="http://www.w3.org/2000/svg" height="24px" viewBox="0 -960 960 960" width="24px" fill="#e3e3e3"><path d="M383.48-531.32q-38.61-38.6-38.61-96.65 0-58.05 38.61-96.53 38.6-38.47 96.52-38.47 57.92 0 96.52 38.47 38.61 38.48 38.61 96.53 0 58.05-38.61 96.65-38.6 38.6-96.52 38.6-57.92 0-96.52-38.6ZM180-187.69v-80.26q0-31.28 16.71-55.58 16.7-24.29 43.8-37.34 61.88-28.41 121.07-42.74 59.19-14.34 118.42-14.34 59.23 0 118.22 14.54 58.98 14.54 120.86 42.54 27.51 13.05 44.21 37.34Q780-299.23 780-267.95v80.26H180Zm50.26-50.26h499.48v-30q0-14.46-8.93-27.45-8.94-12.99-23.58-20.6-56.56-27.62-109.34-39.65-52.78-12.04-107.89-12.04t-108.43 12.04Q318.26-343.62 262.36-316q-14.64 7.61-23.37 20.6-8.73 12.99-8.73 27.45v30Zm310.16-329.47q24.45-24.45 24.45-60.43 0-35.97-24.45-60.42-24.45-24.45-60.42-24.45t-60.42 24.45q-24.45 24.45-24.45 60.42 0 35.98 24.45 60.43 24.45 24.45 60.42 24.45t60.42-24.45ZM480-627.85Zm0 389.9Z"/></svg>